#N canvas 1062 77 725 640 12;
#X obj 67 26 tgl 15 0 empty empty empty 17 7 0 10 -262144 -1 -1 1 1
;
#X obj 67 113 metro;
#X obj 67 144 bng 15 250 50 0 empty empty empty 17 7 0 10 -262144 -1
-1;
#X obj 67 164 f;
#X floatatom 67 187 5 0 0 0 - - -;
#X obj 67 211 % 4;
#X floatatom 67 235 5 0 0 0 - - -;
#X obj 67 290 bng 15 250 50 0 empty empty empty 17 7 0 10 -262144 -1
-1;
#X obj 90 290 bng 15 250 50 0 empty empty empty 17 7 0 10 -262144 -1
-1;
#X obj 114 290 bng 15 250 50 0 empty empty empty 17 7 0 10 -262144
-1 -1;
#X obj 138 290 bng 15 250 50 0 empty empty empty 17 7 0 10 -262144
-1 -1;
#X floatatom 104 26 5 0 0 0 - - -;
#X msg 104 83 tempo \$1 permin;
#X obj 106 163 + 1;
#X floatatom 67 321 5 0 127 0 - - -;
#X floatatom 90 341 5 0 127 0 - - -;
#X floatatom 114 361 5 0 127 0 - - -;
#X floatatom 138 381 5 0 127 0 - - -;
#X obj 67 258 select 0 1 2 3 4 5 6 7 8 9 10 11 12 13 14 15, f 55;
#X obj 162 291 bng 15 250 50 0 empty empty empty 17 7 0 10 -262144
-1 -1;
#X obj 186 291 bng 15 250 50 0 empty empty empty 17 7 0 10 -262144
-1 -1;
#X obj 210 291 bng 15 250 50 0 empty empty empty 17 7 0 10 -262144
-1 -1;
#X obj 234 291 bng 15 250 50 0 empty empty empty 17 7 0 10 -262144
-1 -1;
#X floatatom 162 322 5 0 127 0 - - -;
#X floatatom 186 342 5 0 127 0 - - -;
#X floatatom 210 362 5 0 127 0 - - -;
#X floatatom 234 382 5 0 127 0 - - -;
#X obj 258 290 bng 15 250 50 0 empty empty empty 17 7 0 10 -262144
-1 -1;
#X obj 281 290 bng 15 250 50 0 empty empty empty 17 7 0 10 -262144
-1 -1;
#X obj 305 290 bng 15 250 50 0 empty empty empty 17 7 0 10 -262144
-1 -1;
#X obj 329 290 bng 15 250 50 0 empty empty empty 17 7 0 10 -262144
-1 -1;
#X floatatom 258 321 5 0 127 0 - - -;
#X floatatom 281 341 5 0 127 0 - - -;
#X floatatom 305 361 5 0 127 0 - - -;
#X floatatom 329 381 5 0 127 0 - - -;
#X obj 353 290 bng 15 250 50 0 empty empty empty 17 7 0 10 -262144
-1 -1;
#X obj 377 290 bng 15 250 50 0 empty empty empty 17 7 0 10 -262144
-1 -1;
#X obj 401 290 bng 15 250 50 0 empty empty empty 17 7 0 10 -262144
-1 -1;
#X obj 425 290 bng 15 250 50 0 empty empty empty 17 7 0 10 -262144
-1 -1;
#X floatatom 353 321 5 0 127 0 - - -;
#X floatatom 377 341 5 0 127 0 - - -;
#X floatatom 401 361 5 0 127 0 - - -;
#X floatatom 425 381 5 0 127 0 - - -;
#X msg 246 109 2;
#X msg 271 134 4;
#X msg 297 109 8;
#X msg 322 134 16;
#X obj 246 81 select 2 4 8 16;
#X floatatom 248 30 5 0 0 0 - - -;
#X obj 67 429 select 0;
#X obj 68 486 mtof;
#X floatatom 68 510 5 0 0 0 - - -;
#X floatatom 70 462 5 0 0 0 - - -;
#X msg 13 117 0;
#X obj 161 470 bng 15 250 50 0 empty empty empty 17 7 0 10 -262144
-1 -1;
#X obj 190 471 bng 15 250 50 0 empty empty empty 17 7 0 10 -262144
-1 -1;
#X connect 0 0 1 0;
#X connect 1 0 2 0;
#X connect 2 0 3 0;
#X connect 3 0 13 0;
#X connect 3 0 4 0;
#X connect 4 0 5 0;
#X connect 5 0 6 0;
#X connect 6 0 18 0;
#X connect 7 0 14 0;
#X connect 8 0 15 0;
#X connect 9 0 16 0;
#X connect 10 0 17 0;
#X connect 11 0 12 0;
#X connect 12 0 1 0;
#X connect 13 0 3 1;
#X connect 14 0 49 0;
#X connect 15 0 49 0;
#X connect 16 0 49 0;
#X connect 17 0 49 0;
#X connect 18 0 7 0;
#X connect 18 1 8 0;
#X connect 18 2 9 0;
#X connect 18 3 10 0;
#X connect 18 4 19 0;
#X connect 18 5 20 0;
#X connect 18 6 21 0;
#X connect 18 7 22 0;
#X connect 18 8 27 0;
#X connect 18 9 28 0;
#X connect 18 10 29 0;
#X connect 18 11 30 0;
#X connect 18 12 35 0;
#X connect 18 13 36 0;
#X connect 18 14 37 0;
#X connect 18 15 38 0;
#X connect 19 0 23 0;
#X connect 20 0 24 0;
#X connect 21 0 25 0;
#X connect 22 0 26 0;
#X connect 23 0 49 0;
#X connect 24 0 49 0;
#X connect 25 0 49 0;
#X connect 27 0 31 0;
#X connect 28 0 32 0;
#X connect 29 0 33 0;
#X connect 30 0 34 0;
#X connect 31 0 49 0;
#X connect 32 0 49 0;
#X connect 33 0 49 0;
#X connect 34 0 49 0;
#X connect 35 0 39 0;
#X connect 36 0 40 0;
#X connect 37 0 41 0;
#X connect 38 0 42 0;
#X connect 39 0 49 0;
#X connect 40 0 49 0;
#X connect 41 0 49 0;
#X connect 42 0 49 0;
#X connect 43 0 5 1;
#X connect 44 0 5 1;
#X connect 45 0 5 1;
#X connect 46 0 5 1;
#X connect 47 0 43 0;
#X connect 47 1 44 0;
#X connect 47 2 45 0;
#X connect 47 3 46 0;
#X connect 48 0 47 0;
#X connect 49 0 54 0;
#X connect 49 1 52 0;
#X connect 49 1 55 0;
#X connect 50 0 51 0;
#X connect 52 0 50 0;
#X connect 53 0 4 0;
