#N canvas 931 296 996 552 12;
#N canvas 331 391 520 419 stereoPlayer 0;
#X obj 42 51 soundfiler;
#N canvas 0 50 491 250 (subpatch) 0;
#X array audioLeft 359856 float 2;
#X coords 0 1 359856 -1 200 140 1;
#X restore 286 30 graph;
#N canvas 0 50 450 250 (subpatch) 0;
#X array audioRight 359856 float 2;
#X coords 0 1 359856 -1 200 140 1 0 0;
#X restore 285 195 graph;
#X obj 89 172 tabplay~ audioLeft;
#X obj 105 198 tabplay~ audioRight;
#X obj 41 26 inlet;
#X obj 89 244 outlet~;
#X obj 108 274 outlet~;
#X obj 87 133 inlet;
#X obj 205 286 bng 15 250 50 0 empty empty empty 17 7 0 10 -262144
-1 -1;
#X connect 3 0 6 0;
#X connect 3 1 9 0;
#X connect 4 0 7 0;
#X connect 5 0 0 0;
#X connect 8 0 3 0;
#X connect 8 0 4 0;
#X restore 59 139 pd stereoPlayer;
#X msg 60 41 read -resize ambientSamples/Bass.wav audioLeft audioRight
, f 64;
#X obj 59 7 loadbang;
#X obj 79 85 bng 15 250 50 0 empty empty empty 17 7 0 10 -262144 -1
-1;
#X msg 79 110 stop;
#N canvas 1131 207 973 585 mixer 1;
#X obj 54 316 vsl 15 128 0 1 0 0 level1 empty Channel_1 0 -9 0 10 -203904
-1 -1 2700 1;
#X obj 92 321 vu 15 120 vu1 empty -1 -8 0 10 -66577 -1 1 0;
#X obj 55 270 hsl 60 20 0 1 0 0 pan1 empty Pan_1 -2 -8 0 10 -262144
-1 -1 3100 0;
#X obj 749 306 vsl 15 128 0 1 0 0 masterVol empty Master 0 -9 0 10
-203904 -1 -1 9600 1;
#X obj 849 308 vu 15 120 vuMasterR MasterR -1 -8 0 10 -66577 -1 0 0
;
#X obj 802 307 vu 15 120 vuMasterL MasterL -1 -8 0 10 -66577 -1 1 0
;
#X obj 55 224 hsl 60 20 0 1 0 0 rev1 empty Reverb_1 -2 -8 0 10 -262144
-1 -1 2200 0;
#X obj 598 303 vsl 15 128 0 1 0 0 revReturn empty Reverb 0 -9 0 10
-203904 -1 -1 0 1;
#N canvas 1185 236 373 339 chan1 0;
#X obj 37 26 catch~ ch1;
#X obj 35 81 *~;
#X obj 74 79 pow 2;
#X obj 74 53 r level1;
#X obj 35 122 env~;
#X obj 35 146 - 95;
#X obj 35 170 s vu1;
#X obj 99 142 throw~ masterL;
#X obj 139 167 throw~ masterR;
#X obj 98 118 panner;
#X floatatom 137 89 5 0 0 0 - pan1 -;
#X obj 36 226 *~;
#X obj 35 256 throw~ RevFX;
#X floatatom 56 199 5 0 0 0 - rev1 -;
#X connect 0 0 1 0;
#X connect 1 0 4 0;
#X connect 1 0 9 0;
#X connect 1 0 11 0;
#X connect 2 0 1 1;
#X connect 3 0 2 0;
#X connect 4 0 5 0;
#X connect 5 0 6 0;
#X connect 9 0 7 0;
#X connect 9 1 8 0;
#X connect 10 0 9 1;
#X connect 11 0 12 0;
#X connect 13 0 11 1;
#X restore 56 165 pd chan1;
#N canvas 0 50 450 300 revFX 0;
#X obj 30 37 catch~ RevFX;
#X obj 31 73 rev2~ 100 85 3000 20;
#X obj 98 113 *~;
#X obj 33 111 *~;
#X floatatom 155 122 5 0 0 0 - revReturn -;
#X obj 32 140 throw~ masterL;
#X obj 102 163 throw~ masterR;
#X connect 0 0 1 0;
#X connect 1 0 2 0;
#X connect 1 0 3 0;
#X connect 2 0 6 0;
#X connect 3 0 5 0;
#X connect 4 0 2 1;
#X connect 4 0 3 1;
#X restore 582 253 pd revFX;
#N canvas 0 50 355 282 master 0;
#X obj 45 18 catch~ masterL;
#X obj 159 18 catch~ masterR;
#X obj 106 43 r masterVol;
#X obj 107 67 pow 2;
#X obj 69 97 *~;
#X obj 131 100 *~;
#X obj 90 135 dac~;
#X obj 17 137 env~;
#X obj 17 161 - 95;
#X obj 161 138 env~;
#X obj 161 162 - 95;
#X obj 161 186 s vuMasterR;
#X obj 17 185 s vuMasterL;
#X connect 0 0 4 0;
#X connect 1 0 5 0;
#X connect 2 0 3 0;
#X connect 3 0 4 1;
#X connect 3 0 5 1;
#X connect 4 0 6 0;
#X connect 4 0 7 0;
#X connect 5 0 6 1;
#X connect 5 0 9 0;
#X connect 7 0 8 0;
#X connect 8 0 12 0;
#X connect 9 0 10 0;
#X connect 10 0 11 0;
#X restore 769 246 pd master;
#X obj 174 316 vsl 15 128 0 1 0 0 level2 empty Channel_2 0 -9 0 10
-203904 -1 -1 6800 1;
#X obj 212 321 vu 15 120 vu2 empty -1 -8 0 10 -66577 -1 1 0;
#X obj 175 270 hsl 60 20 0 1 0 0 pan2 empty Pan_2 -2 -8 0 10 -262144
-1 -1 3000 0;
#X obj 175 224 hsl 60 20 0 1 0 0 rev2 empty Reverb_2 -2 -8 0 10 -262144
-1 -1 0 0;
#N canvas 1185 236 373 243 chan2 0;
#X obj 35 81 *~;
#X obj 74 79 pow 2;
#X obj 35 122 env~;
#X obj 35 146 - 95;
#X obj 99 142 throw~ masterL;
#X obj 139 167 throw~ masterR;
#X obj 98 118 panner;
#X floatatom 137 89 5 0 0 0 - pan2 -;
#X obj 36 226 *~;
#X obj 35 256 throw~ RevFX;
#X floatatom 56 199 5 0 0 0 - rev2 -;
#X obj 37 26 catch~ ch2;
#X obj 74 52 r level2;
#X obj 35 170 s vu2;
#X connect 0 0 2 0;
#X connect 0 0 6 0;
#X connect 0 0 8 0;
#X connect 1 0 0 1;
#X connect 2 0 3 0;
#X connect 3 0 13 0;
#X connect 6 0 4 0;
#X connect 6 1 5 0;
#X connect 7 0 6 1;
#X connect 8 0 9 0;
#X connect 10 0 8 1;
#X connect 11 0 0 0;
#X connect 12 0 1 0;
#X restore 177 162 pd chan2;
#X restore 548 462 pd mixer;
#X obj 57 291 throw~ ch1;
#X obj 257 85 loadbang;
#X obj 286 136 bng 15 250 50 0 empty empty empty 17 7 0 10 -262144
-1 -1;
#X msg 292 159 stop;
#X obj 256 286 throw~ ch2;
#N canvas 1286 293 520 419 stereoPlayer2 0;
#N canvas 0 50 450 250 (subpatch) 0;
#X array audioLeft2 698544 float 2;
#X coords 0 1 698544 -1 200 140 1 0 0;
#X restore 286 30 graph;
#N canvas 0 50 450 250 (subpatch) 0;
#X array audioRight2 698544 float 2;
#X coords 0 1 698544 -1 200 140 1 0 0;
#X restore 285 195 graph;
#X obj 66 68 soundfiler;
#X obj 65 43 inlet;
#X obj 114 257 outlet~;
#X obj 133 287 outlet~;
#X obj 112 146 inlet;
#X obj 116 182 tabplay~ audioLeft2;
#X obj 130 211 tabplay~ audioRight2;
#X connect 3 0 2 0;
#X connect 6 0 7 0;
#X connect 6 0 8 0;
#X connect 7 0 4 0;
#X connect 8 0 5 0;
#X restore 255 186 pd stereoPlayer2;
#X msg 257 112 read -resize ambientSamples/Kick.wav audioLeft2 audioRight2
, f 64;
#X obj 575 38 bng 50 250 50 0 empty empty empty 17 7 0 10 -4034 -1
-1;
#X obj 639 39 bng 50 250 50 0 empty empty empty 17 7 0 10 -258113 -1
-1;
#X connect 0 0 6 0;
#X connect 1 0 0 0;
#X connect 2 0 1 0;
#X connect 3 0 0 1;
#X connect 4 0 0 1;
#X connect 7 0 12 0;
#X connect 8 0 11 1;
#X connect 9 0 11 1;
#X connect 11 0 10 0;
#X connect 12 0 11 0;
#X connect 13 0 8 0;
#X connect 13 0 3 0;
#X connect 14 0 9 0;
#X connect 14 0 4 0;
