#N canvas 1265 227 450 443 12;
#X obj 83 121 -;
#X obj 105 205 *;
#X obj 258 125 -;
#X obj 169 123 -;
#X obj 184 210 +;
#X obj 105 279 /;
#X obj 53 23 inlet value;
#X obj 105 334 outlet mappedValue;
#X obj 126 45 inlet inMin;
#X obj 168 65 inlet inMax;
#X obj 228 37 inlet outMin;
#X obj 272 57 inlet outMax;
#X connect 0 0 1 0;
#X connect 1 0 5 0;
#X connect 2 0 1 1;
#X connect 3 0 4 0;
#X connect 4 0 5 1;
#X connect 5 0 7 0;
#X connect 6 0 0 0;
#X connect 8 0 0 1;
#X connect 8 0 3 1;
#X connect 9 0 3 0;
#X connect 10 0 4 1;
#X connect 10 0 2 1;
#X connect 11 0 2 0;
