#N canvas 1038 250 566 362 12;
#X obj 77 43 inlet~ signal;
#X obj 279 35 inlet control;
#X msg 119 173 \$1 10;
#X obj 119 197 line~;
#X obj 119 221 cos~;
#X obj 72 249 *~;
#X obj 72 273 outlet~ left;
#X obj 279 59 / 4;
#X floatatom 279 83 5 0 0 0 - - -;
#X obj 279 125 + 0.75;
#X msg 279 149 \$1 10;
#X obj 279 173 line~;
#X obj 279 197 cos~;
#X obj 243 248 *~;
#X obj 243 272 outlet~ right;
#X text 331 63 <-- Rango 0 - 0.25;
#X connect 0 0 5 0;
#X connect 0 0 13 0;
#X connect 1 0 7 0;
#X connect 2 0 3 0;
#X connect 3 0 4 0;
#X connect 4 0 5 1;
#X connect 5 0 6 0;
#X connect 7 0 8 0;
#X connect 8 0 9 0;
#X connect 8 0 2 0;
#X connect 9 0 10 0;
#X connect 10 0 11 0;
#X connect 11 0 12 0;
#X connect 12 0 13 1;
#X connect 13 0 14 0;
